#!OML:ASF H:\Dans Jumps\Project 1\Capture day 1\Session 1\subject.ASF
:FULLY-SPECIFIED
:DEGREES
134
root 0.542258 17.554 -13.7788 5.119 -1.52756 -1.90526
lowerback -2.71082 -0.338092 0.387675
upperback 2.43013 -0.535109 1.77433
thorax 4.03743 -0.282914 1.57922
lowerneck -13.8994 0.263455 -2.17874
upperneck 29.9417 0.704717 0.832642
head 12.1428 0.169811 0.79106
rclavicle -1.25731e-014 -9.74045e-015
rhumerus -27.6117 -17.7921 -77.9825
rradius 23.9569
rwrist 31.7912
rhand -19.5598 -26.4701
rfingers 7.12502
rthumb 6.7648 -56.3421
lclavicle -1.25731e-014 -9.74045e-015
lhumerus -24.705 3.48197 86.3961
lradius 16.4668
lwrist 1.9609
lhand -25.3886 -3.8175
lfingers 7.12502
lthumb 1.13626 26.1592
rfemur -10.9028 -2.44047 20.0941
rtibia 19.8821
rfoot -13.3982 -1.93827
rtoes 10.3666
lfemur -9.82241 6.09256 -17.5575
ltibia 18.4317
lfoot -11.2549 4.62821
ltoes -0.581723
135
root 0.542659 17.5539 -13.7795 5.12141 -1.53109 -1.90584
lowerback -2.71061 -0.337016 0.385756
upperback 2.43308 -0.533643 1.77449
thorax 4.04036 -0.282258 1.58056
lowerneck -13.9012 0.262775 -2.17701
upperneck 29.9435 0.702349 0.835639
head 12.1439 0.169313 0.791575
rclavicle 2.08724e-015 1.03368e-014
rhumerus -27.5983 -17.7888 -77.9924
rradius 23.9621
rwrist 31.7902
rhand -19.5668 -26.48
rfingers 7.12502
rthumb 6.75799 -56.3522
lclavicle 2.08724e-015 1.03368e-014
lhumerus -24.6931 3.41673 86.4205
lradius 16.5041
lwrist 2.02221
lhand -25.3756 -3.8011
lfingers 7.12502
lthumb 1.14879 26.1756
rfemur -10.9091 -2.43151 20.0934
rtibia 19.8832
rfoot -13.3949 -1.94674
rtoes 10.3518
lfemur -9.83047 6.09455 -17.5586
ltibia 18.4372
lfoot -11.257 4.62729
ltoes -0.56131
136
root 0.542977 17.5539 -13.7802 5.12504 -1.53382 -1.9067
lowerback -2.71089 -0.335226 0.384787
upperback 2.43558 -0.531216 1.7734
thorax 4.04304 -0.281074 1.58013
lowerneck -13.9049 0.260513 -2.1729
upperneck 29.9482 0.697487 0.837397
head 12.1467 0.167791 0.790886
rclavicle 6.06293e-015 1.59028e-015
rhumerus -27.5883 -17.7785 -78.0059
rradius 23.9717
rwrist 31.7755
rhand -19.5736 -26.4905
rfingers 7.12502
rthumb 6.75141 -56.3628
lclavicle 6.06293e-015 1.59028e-015
lhumerus -24.6814 3.35649 86.4403
lradius 16.5403
lwrist 2.07628
lhand -25.3651 -3.78597
lfingers 7.12502
lthumb 1.15896 26.1906
rfemur -10.9166 -2.42227 20.0934
rtibia 19.8848
rfoot -13.3923 -1.95455
rtoes 10.3539
lfemur -9.83961 6.09696 -17.5589
ltibia 18.4421
lfoot -11.2596 4.62435
ltoes -0.538178
137
root 0.543245 17.5539 -13.7809 5.12892 -1.53901 -1.90684
lowerback -2.71103 -0.33169 0.38398
upperback 2.43809 -0.526403 1.77067
thorax 4.04558 -0.278672 1.57806
lowerneck -13.9056 0.256275 -2.16919
upperneck 29.9516 0.689804 0.839175
head 12.1483 0.164982 0.789848
rclavicle 2.08724e-015 7.55382e-015
rhumerus -27.5782 -17.7772 -78.0179
rradius 23.9773
rwrist 31.7689
rhand -19.5814 -26.4926
rfingers 7.12502
rthumb 6.7439 -56.3652
lclavicle 2.08724e-015 7.55382e-015
lhumerus -24.6684 3.30899 86.4536
lradius 16.5707
lwrist 2.11544
lhand -25.3707 -3.78933
lfingers 7.12502
lthumb 1.15354 26.1873
rfemur -10.9251 -2.41156 20.0927
rtibia 19.887
rfoot -13.3885 -1.96022
rtoes 10.3565
lfemur -9.8487 6.10255 -17.5598
ltibia 18.4472
lfoot -11.2634 4.62012
ltoes -0.51562
